<svg width="380" height="380" viewBox="0 0 380 380" fill="none" xmlns="http://www.w3.org/2000/svg">
<mask id="path-1-outside-1_16_48" maskUnits="userSpaceOnUse" x="17" y="17" width="222" height="346" fill="black">
<rect fill="white" x="17" y="17" width="222" height="346"/>
<path d="M190 21C165.944 21 142.165 26.1358 120.252 36.064C98.3405 45.9922 78.8005 60.4841 62.9391 78.5706C47.0776 96.6571 35.2603 117.921 28.2771 140.942C21.2939 163.962 19.3058 188.208 22.4458 212.059C25.5858 235.909 33.7815 258.815 46.4848 279.243C59.1882 299.672 76.1065 317.153 96.1086 330.518C116.111 343.883 138.736 352.824 162.471 356.743C186.206 360.661 210.504 359.468 233.74 353.241L190 190L190 21Z"/>
</mask>
<path d="M190 21C165.944 21 142.165 26.1358 120.252 36.064C98.3405 45.9922 78.8005 60.4841 62.9391 78.5706C47.0776 96.6571 35.2603 117.921 28.2771 140.942C21.2939 163.962 19.3058 188.208 22.4458 212.059C25.5858 235.909 33.7815 258.815 46.4848 279.243C59.1882 299.672 76.1065 317.153 96.1086 330.518C116.111 343.883 138.736 352.824 162.471 356.743C186.206 360.661 210.504 359.468 233.74 353.241L190 190L190 21Z" fill="#414487"/>
<path d="M190 21C165.944 21 142.165 26.1358 120.252 36.064C98.3405 45.9922 78.8005 60.4841 62.9391 78.5706C47.0776 96.6571 35.2603 117.921 28.2771 140.942C21.2939 163.962 19.3058 188.208 22.4458 212.059C25.5858 235.909 33.7815 258.815 46.4848 279.243C59.1882 299.672 76.1065 317.153 96.1086 330.518C116.111 343.883 138.736 352.824 162.471 356.743C186.206 360.661 210.504 359.468 233.74 353.241L190 190L190 21Z" stroke="white" stroke-width="8" mask="url(#path-1-outside-1_16_48)"/>
<mask id="path-2-outside-2_16_48" maskUnits="userSpaceOnUse" x="34" y="34" width="238" height="312" fill="black">
<rect fill="white" x="34" y="34" width="238" height="312"/>
<path d="M190 38C166.685 38 143.683 43.3634 122.772 53.6754C101.862 63.9873 83.6035 78.9713 69.4103 97.4683C55.2171 115.965 45.4691 137.479 40.9206 160.346C36.3721 183.213 37.1449 206.82 43.1793 229.34C49.2136 251.861 60.3477 272.691 75.7203 290.221C91.0929 307.75 110.292 321.507 131.832 330.43C153.372 339.352 176.676 343.199 199.941 341.675C223.206 340.15 245.809 333.293 266 321.636L190 190L190 38Z"/>
</mask>
<path d="M190 38C166.685 38 143.683 43.3634 122.772 53.6754C101.862 63.9873 83.6035 78.9713 69.4103 97.4683C55.2171 115.965 45.4691 137.479 40.9206 160.346C36.3721 183.213 37.1449 206.82 43.1793 229.34C49.2136 251.861 60.3477 272.691 75.7203 290.221C91.0929 307.75 110.292 321.507 131.832 330.43C153.372 339.352 176.676 343.199 199.941 341.675C223.206 340.15 245.809 333.293 266 321.636L190 190L190 38Z" fill="#2A788E"/>
<path d="M190 38C166.685 38 143.683 43.3634 122.772 53.6754C101.862 63.9873 83.6035 78.9713 69.4103 97.4683C55.2171 115.965 45.4691 137.479 40.9206 160.346C36.3721 183.213 37.1449 206.82 43.1793 229.34C49.2136 251.861 60.3477 272.691 75.7203 290.221C91.0929 307.75 110.292 321.507 131.832 330.43C153.372 339.352 176.676 343.199 199.941 341.675C223.206 340.15 245.809 333.293 266 321.636L190 190L190 38Z" stroke="white" stroke-width="8" mask="url(#path-2-outside-2_16_48)"/>
<mask id="path-3-outside-3_16_48" maskUnits="userSpaceOnUse" x="51" y="51" width="262" height="278" fill="black">
<rect fill="white" x="51" y="51" width="262" height="278"/>
<path d="M190 55C166.303 55 143.023 61.2379 122.5 73.0866C101.977 84.9353 84.9353 101.977 73.0866 122.5C61.2378 143.023 55 166.303 55 190C55 213.697 61.2378 236.977 73.0866 257.5C84.9353 278.023 101.977 295.065 122.5 306.913C143.023 318.762 166.303 325 190 325C213.697 325 236.977 318.762 257.5 306.913C278.023 295.065 295.065 278.023 306.913 257.5L190 190L190 55Z"/>
</mask>
<path d="M190 55C166.303 55 143.023 61.2379 122.5 73.0866C101.977 84.9353 84.9353 101.977 73.0866 122.5C61.2378 143.023 55 166.303 55 190C55 213.697 61.2378 236.977 73.0866 257.5C84.9353 278.023 101.977 295.065 122.5 306.913C143.023 318.762 166.303 325 190 325C213.697 325 236.977 318.762 257.5 306.913C278.023 295.065 295.065 278.023 306.913 257.5L190 190L190 55Z" fill="#22A884"/>
<path d="M190 55C166.303 55 143.023 61.2379 122.5 73.0866C101.977 84.9353 84.9353 101.977 73.0866 122.5C61.2378 143.023 55 166.303 55 190C55 213.697 61.2378 236.977 73.0866 257.5C84.9353 278.023 101.977 295.065 122.5 306.913C143.023 318.762 166.303 325 190 325C213.697 325 236.977 318.762 257.5 306.913C278.023 295.065 295.065 278.023 306.913 257.5L190 190L190 55Z" stroke="white" stroke-width="8" mask="url(#path-3-outside-3_16_48)"/>
<mask id="path-4-outside-4_16_48" maskUnits="userSpaceOnUse" x="68" y="68" width="244" height="244" fill="black">
<rect fill="white" x="68" y="68" width="244" height="244"/>
<path d="M190 72C166.662 72 143.848 78.9206 124.443 91.8866C105.038 104.853 89.9133 123.282 80.9822 144.843C72.0511 166.405 69.7143 190.131 74.2673 213.021C78.8204 235.91 90.0588 256.936 106.561 273.439C123.064 289.941 144.09 301.18 166.979 305.733C189.869 310.286 213.595 307.949 235.157 299.018C256.718 290.087 275.147 274.962 288.113 255.557C301.079 236.152 308 213.338 308 190L190 190L190 72Z"/>
</mask>
<path d="M190 72C166.662 72 143.848 78.9206 124.443 91.8866C105.038 104.853 89.9133 123.282 80.9822 144.843C72.0511 166.405 69.7143 190.131 74.2673 213.021C78.8204 235.91 90.0588 256.936 106.561 273.439C123.064 289.941 144.09 301.18 166.979 305.733C189.869 310.286 213.595 307.949 235.157 299.018C256.718 290.087 275.147 274.962 288.113 255.557C301.079 236.152 308 213.338 308 190L190 190L190 72Z" fill="#7AD151"/>
<path d="M190 72C166.662 72 143.848 78.9206 124.443 91.8866C105.038 104.853 89.9133 123.282 80.9822 144.843C72.0511 166.405 69.7143 190.131 74.2673 213.021C78.8204 235.91 90.0588 256.936 106.561 273.439C123.064 289.941 144.09 301.18 166.979 305.733C189.869 310.286 213.595 307.949 235.157 299.018C256.718 290.087 275.147 274.962 288.113 255.557C301.079 236.152 308 213.338 308 190L190 190L190 72Z" stroke="white" stroke-width="8" mask="url(#path-4-outside-4_16_48)"/>
<mask id="path-5-outside-5_16_48" maskUnits="userSpaceOnUse" x="85" y="85" width="211" height="211" fill="black">
<rect fill="white" x="85" y="85" width="211" height="211"/>
<path d="M190 89C167.766 89 146.154 96.3364 128.515 109.871C110.876 123.406 98.196 142.383 92.4415 163.859C86.687 185.335 88.1797 208.11 96.6882 228.651C105.197 249.192 120.245 266.352 139.5 277.469C158.755 288.585 181.14 293.038 203.183 290.136C225.227 287.234 245.696 277.139 261.418 261.418C277.139 245.696 287.234 225.226 290.136 203.183C293.038 181.14 288.585 158.755 277.469 139.5L190 190L190 89Z"/>
</mask>
<path d="M190 89C167.766 89 146.154 96.3364 128.515 109.871C110.876 123.406 98.196 142.383 92.4415 163.859C86.687 185.335 88.1797 208.11 96.6882 228.651C105.197 249.192 120.245 266.352 139.5 277.469C158.755 288.585 181.14 293.038 203.183 290.136C225.227 287.234 245.696 277.139 261.418 261.418C277.139 245.696 287.234 225.226 290.136 203.183C293.038 181.14 288.585 158.755 277.469 139.5L190 190L190 89Z" fill="#FDE725"/>
<path d="M190 89C167.766 89 146.154 96.3364 128.515 109.871C110.876 123.406 98.196 142.383 92.4415 163.859C86.687 185.335 88.1797 208.11 96.6882 228.651C105.197 249.192 120.245 266.352 139.5 277.469C158.755 288.585 181.14 293.038 203.183 290.136C225.227 287.234 245.696 277.139 261.418 261.418C277.139 245.696 287.234 225.226 290.136 203.183C293.038 181.14 288.585 158.755 277.469 139.5L190 190L190 89Z" stroke="white" stroke-width="8" mask="url(#path-5-outside-5_16_48)"/>
<circle cx="190" cy="190" r="86" transform="rotate(-90 190 190)" fill="white" stroke="white" stroke-width="4"/>
<circle cx="190" cy="190" r="189.5" stroke="#CDCDCD"/>
<circle cx="190" cy="190" r="47" stroke="#CDCDCD"/>
<line x1="190.5" y1="2.58817e-08" x2="190.5" y2="380" stroke="#CDCDCD"/>
<line x1="380" y1="190.5" x2="-4.37114e-08" y2="190.5" stroke="#CDCDCD"/>
<line x1="325.465" y1="56.298" x2="56.7641" y2="324.999" stroke="#CDCDCD"/>
<line x1="324.758" y1="325.465" x2="56.057" y2="56.7641" stroke="#CDCDCD"/>
<line x1="239.039" y1="6.46275" x2="140.687" y2="373.515" stroke="#CDCDCD"/>
<line x1="373.537" y1="239.039" x2="6.48547" y2="140.687" stroke="#CDCDCD"/>
<line x1="354.917" y1="95.433" x2="25.827" y2="285.433" stroke="#CDCDCD"/>
<line x1="284.567" y1="354.917" x2="94.567" y2="25.827" stroke="#CDCDCD"/>
<line x1="285.433" y1="25.5833" x2="95.433" y2="354.673" stroke="#CDCDCD"/>
<line x1="354.417" y1="285.433" x2="25.327" y2="95.433" stroke="#CDCDCD"/>
<line x1="373.796" y1="140.872" x2="6.74427" y2="239.223" stroke="#CDCDCD"/>
<line x1="238.073" y1="373.796" x2="139.721" y2="6.74427" stroke="#CDCDCD"/>
<circle cx="190" cy="190" r="29.5" fill="white" stroke="#CDCDCD"/>
</svg>
